<svg width="25" height="265" viewBox="0 0 25 265" fill="none" xmlns="http://www.w3.org/2000/svg">
<g clip-path="url(#clip0)">
<rect x="13" width="1" height="104" fill="#C8CCD8"/>
<path d="M8 153.92H20.375V155.443H14.87V161.563H20.375V163.085H8V161.563H13.535V155.443H8V153.92ZM7.76 187.365C7.76 186.5 7.925 185.69 8.255 184.935C8.585 184.18 9.0425 183.518 9.6275 182.948C10.2175 182.378 10.9 181.93 11.675 181.605C12.455 181.285 13.29 181.125 14.18 181.125C15.075 181.125 15.91 181.285 16.685 181.605C17.46 181.93 18.14 182.378 18.725 182.948C19.315 183.518 19.775 184.18 20.105 184.935C20.435 185.69 20.6 186.5 20.6 187.365C20.6 188.23 20.435 189.04 20.105 189.795C19.775 190.55 19.315 191.213 18.725 191.783C18.14 192.353 17.46 192.798 16.685 193.118C15.91 193.443 15.075 193.605 14.18 193.605C13.29 193.605 12.455 193.443 11.675 193.118C10.9 192.798 10.2175 192.353 9.6275 191.783C9.0425 191.213 8.585 190.55 8.255 189.795C7.925 189.04 7.76 188.23 7.76 187.365ZM9.23 187.365C9.23 188.015 9.355 188.618 9.605 189.173C9.855 189.733 10.2025 190.22 10.6475 190.635C11.0975 191.055 11.6225 191.38 12.2225 191.61C12.8275 191.845 13.48 191.963 14.18 191.963C14.88 191.963 15.53 191.845 16.13 191.61C16.735 191.38 17.26 191.055 17.705 190.635C18.155 190.22 18.505 189.733 18.755 189.173C19.005 188.618 19.13 188.015 19.13 187.365C19.13 186.715 19.005 186.11 18.755 185.55C18.505 184.995 18.155 184.508 17.705 184.088C17.26 183.673 16.735 183.348 16.13 183.113C15.53 182.883 14.88 182.768 14.18 182.768C13.48 182.768 12.8275 182.883 12.2225 183.113C11.6225 183.348 11.0975 183.673 10.6475 184.088C10.2025 184.508 9.855 184.995 9.605 185.55C9.355 186.11 9.23 186.715 9.23 187.365ZM8 210.982L20.375 212.474V214.094L11.27 217.529L20.375 220.964V222.584L8 224.077V222.554L17.585 221.362L8.6225 218.039V217.019L17.585 213.697L8 212.504V210.982ZM8 242.25H20.375V248.678H19.0325V243.773H14.87V248.498H13.535V243.773H9.3425V248.678H8V242.25Z" fill="#C8CCD8"/>
</g>
<defs>
<clipPath id="clip0">
<rect width="25" height="265" fill="white"/>
</clipPath>
</defs>
</svg>
