<svg width="25" height="340" viewBox="0 0 25 340" fill="none" xmlns="http://www.w3.org/2000/svg">
<g clip-path="url(#clip0)">
<rect x="13" width="1" height="104" fill="#C8CCD8"/>
<path d="M7.76 159.373C7.76 158.443 7.9225 157.575 8.2475 156.77C8.5775 155.97 9.0325 155.268 9.6125 154.663C10.1975 154.063 10.88 153.595 11.66 153.26C12.44 152.925 13.28 152.758 14.18 152.758C15.08 152.758 15.92 152.925 16.7 153.26C17.48 153.6 18.16 154.07 18.74 154.67C19.325 155.27 19.78 155.97 20.105 156.77C20.435 157.57 20.6 158.435 20.6 159.365C20.6 160.135 20.4875 160.86 20.2625 161.54C20.0425 162.225 19.74 162.823 19.355 163.333L18.0725 162.643C18.4025 162.233 18.655 161.753 18.83 161.203C19.01 160.653 19.1 160.073 19.1 159.463C19.1 158.728 18.975 158.053 18.725 157.438C18.475 156.823 18.125 156.288 17.675 155.833C17.23 155.383 16.7075 155.033 16.1075 154.783C15.5125 154.538 14.87 154.415 14.18 154.415C13.49 154.415 12.845 154.538 12.245 154.783C11.65 155.033 11.1275 155.383 10.6775 155.833C10.2325 156.288 9.885 156.823 9.635 157.438C9.385 158.053 9.26 158.728 9.26 159.463C9.26 160.073 9.3475 160.653 9.5225 161.203C9.7025 161.753 9.9575 162.233 10.2875 162.643L9.005 163.333C8.63 162.833 8.3275 162.243 8.0975 161.563C7.8725 160.883 7.76 160.153 7.76 159.373ZM7.76 186.252C7.76 185.387 7.925 184.577 8.255 183.822C8.585 183.067 9.0425 182.405 9.6275 181.835C10.2175 181.265 10.9 180.817 11.675 180.492C12.455 180.172 13.29 180.012 14.18 180.012C15.075 180.012 15.91 180.172 16.685 180.492C17.46 180.817 18.14 181.265 18.725 181.835C19.315 182.405 19.775 183.067 20.105 183.822C20.435 184.577 20.6 185.387 20.6 186.252C20.6 187.117 20.435 187.927 20.105 188.682C19.775 189.437 19.315 190.1 18.725 190.67C18.14 191.24 17.46 191.685 16.685 192.005C15.91 192.33 15.075 192.492 14.18 192.492C13.29 192.492 12.455 192.33 11.675 192.005C10.9 191.685 10.2175 191.24 9.6275 190.67C9.0425 190.1 8.585 189.437 8.255 188.682C7.925 187.927 7.76 187.117 7.76 186.252ZM9.23 186.252C9.23 186.902 9.355 187.505 9.605 188.06C9.855 188.62 10.2025 189.107 10.6475 189.522C11.0975 189.942 11.6225 190.267 12.2225 190.497C12.8275 190.732 13.48 190.85 14.18 190.85C14.88 190.85 15.53 190.732 16.13 190.497C16.735 190.267 17.26 189.942 17.705 189.522C18.155 189.107 18.505 188.62 18.755 188.06C19.005 187.505 19.13 186.902 19.13 186.252C19.13 185.602 19.005 184.997 18.755 184.437C18.505 183.882 18.155 183.395 17.705 182.975C17.26 182.56 16.735 182.235 16.13 182C15.53 181.77 14.88 181.655 14.18 181.655C13.48 181.655 12.8275 181.77 12.2225 182C11.6225 182.235 11.0975 182.56 10.6475 182.975C10.2025 183.395 9.855 183.882 9.605 184.437C9.355 184.997 9.23 185.602 9.23 186.252ZM8 210.536H20.375V212.059L10.5725 218.314H20.375V219.836H8V218.314L17.795 212.059H8V210.536ZM8 240.298H19.01V236.713H20.375V245.413H19.01V241.821H8V240.298ZM8 260.984L20.375 265.882V267.299L8 272.197V270.554L11.6075 269.182V263.999L8 262.619V260.984ZM12.95 264.517V268.664L18.3425 266.587L12.95 264.517ZM7.76 295.178C7.76 294.248 7.9225 293.381 8.2475 292.576C8.5775 291.776 9.0325 291.073 9.6125 290.468C10.1975 289.868 10.88 289.401 11.66 289.066C12.44 288.731 13.28 288.563 14.18 288.563C15.08 288.563 15.92 288.731 16.7 289.066C17.48 289.406 18.16 289.876 18.74 290.476C19.325 291.076 19.78 291.776 20.105 292.576C20.435 293.376 20.6 294.241 20.6 295.171C20.6 295.941 20.4875 296.666 20.2625 297.346C20.0425 298.031 19.74 298.628 19.355 299.138L18.0725 298.448C18.4025 298.038 18.655 297.558 18.83 297.008C19.01 296.458 19.1 295.878 19.1 295.268C19.1 294.533 18.975 293.858 18.725 293.243C18.475 292.628 18.125 292.093 17.675 291.638C17.23 291.188 16.7075 290.838 16.1075 290.588C15.5125 290.343 14.87 290.221 14.18 290.221C13.49 290.221 12.845 290.343 12.245 290.588C11.65 290.838 11.1275 291.188 10.6775 291.638C10.2325 292.093 9.885 292.628 9.635 293.243C9.385 293.858 9.26 294.533 9.26 295.268C9.26 295.878 9.3475 296.458 9.5225 297.008C9.7025 297.558 9.9575 298.038 10.2875 298.448L9.005 299.138C8.63 298.638 8.3275 298.048 8.0975 297.368C7.8725 296.688 7.76 295.958 7.76 295.178ZM8 318.96H19.01V315.375H20.375V324.075H19.01V320.483H8V318.96Z" fill="#C8CCD8"/>
</g>
<defs>
<clipPath id="clip0">
<rect width="25" height="340" fill="white"/>
</clipPath>
</defs>
</svg>
