<svg width="25" height="357" viewBox="0 0 25 357" fill="none" xmlns="http://www.w3.org/2000/svg">
<g clip-path="url(#clip0)">
<rect x="13" width="1" height="104" fill="#C8CCD8"/>
<path d="M8 152.615L20.375 157.513V158.93L8 163.828V162.185L11.6075 160.813V155.63L8 154.25V152.615ZM12.95 156.148V160.295L18.3425 158.218L12.95 156.148ZM8 180.794H20.375V183.689C20.375 184.889 20.1075 185.824 19.5725 186.494C19.0425 187.164 18.27 187.499 17.255 187.499C15.915 187.499 14.99 186.924 14.48 185.774C14.35 186.679 14.015 187.374 13.475 187.859C12.94 188.349 12.235 188.594 11.36 188.594C10.66 188.594 10.0575 188.437 9.5525 188.122C9.0525 187.807 8.6675 187.357 8.3975 186.772C8.1325 186.187 8 185.489 8 184.679L8 180.794ZM14.975 182.317V183.382C14.975 184.237 15.155 184.892 15.515 185.347C15.88 185.807 16.4025 186.037 17.0825 186.037C17.7625 186.037 18.28 185.809 18.635 185.354C18.995 184.899 19.175 184.242 19.175 183.382V182.317H14.975ZM9.215 182.317V184.222C9.215 185.127 9.4025 185.819 9.7775 186.299C10.1575 186.779 10.7 187.019 11.405 187.019C12.115 187.019 12.665 186.774 13.055 186.284C13.45 185.799 13.6475 185.112 13.6475 184.222V182.317H9.215ZM7.76 211.579C7.76 210.714 7.925 209.904 8.255 209.149C8.585 208.394 9.0425 207.732 9.6275 207.162C10.2175 206.592 10.9 206.144 11.675 205.819C12.455 205.499 13.29 205.339 14.18 205.339C15.075 205.339 15.91 205.499 16.685 205.819C17.46 206.144 18.14 206.592 18.725 207.162C19.315 207.732 19.775 208.394 20.105 209.149C20.435 209.904 20.6 210.714 20.6 211.579C20.6 212.444 20.435 213.254 20.105 214.009C19.775 214.764 19.315 215.427 18.725 215.997C18.14 216.567 17.46 217.012 16.685 217.332C15.91 217.657 15.075 217.819 14.18 217.819C13.29 217.819 12.455 217.657 11.675 217.332C10.9 217.012 10.2175 216.567 9.6275 215.997C9.0425 215.427 8.585 214.764 8.255 214.009C7.925 213.254 7.76 212.444 7.76 211.579ZM9.23 211.579C9.23 212.229 9.355 212.832 9.605 213.387C9.855 213.947 10.2025 214.434 10.6475 214.849C11.0975 215.269 11.6225 215.594 12.2225 215.824C12.8275 216.059 13.48 216.177 14.18 216.177C14.88 216.177 15.53 216.059 16.13 215.824C16.735 215.594 17.26 215.269 17.705 214.849C18.155 214.434 18.505 213.947 18.755 213.387C19.005 212.832 19.13 212.229 19.13 211.579C19.13 210.929 19.005 210.324 18.755 209.764C18.505 209.209 18.155 208.722 17.705 208.302C17.26 207.887 16.735 207.562 16.13 207.327C15.53 207.097 14.88 206.982 14.18 206.982C13.48 206.982 12.8275 207.097 12.2225 207.327C11.6225 207.562 11.0975 207.887 10.6475 208.302C10.2025 208.722 9.855 209.209 9.605 209.764C9.355 210.324 9.23 210.929 9.23 211.579ZM7.76 240.086C7.76 238.626 8.15 237.526 8.93 236.786C9.71 236.046 10.8725 235.676 12.4175 235.676H20.375V237.198H12.8C11.595 237.198 10.7025 237.433 10.1225 237.903C9.5475 238.378 9.26 239.106 9.26 240.086C9.26 241.066 9.5475 241.791 10.1225 242.261C10.7025 242.736 11.595 242.973 12.8 242.973H20.375V244.503H12.4175C10.8725 244.503 9.71 244.133 8.93 243.393C8.15 242.653 7.76 241.551 7.76 240.086ZM8 264.776H19.01V261.191H20.375V269.891H19.01V266.298H8V264.776ZM7.76 310.618C7.76 309.158 8.15 308.058 8.93 307.318C9.71 306.578 10.8725 306.208 12.4175 306.208H20.375V307.731H12.8C11.595 307.731 10.7025 307.966 10.1225 308.436C9.5475 308.911 9.26 309.638 9.26 310.618C9.26 311.598 9.5475 312.323 10.1225 312.793C10.7025 313.268 11.595 313.506 12.8 313.506H20.375V315.036H12.4175C10.8725 315.036 9.71 314.666 8.93 313.926C8.15 313.186 7.76 312.083 7.76 310.618ZM7.76 336.52C7.76 335.9 7.845 335.348 8.015 334.863C8.19 334.378 8.4025 333.96 8.6525 333.61C8.9025 333.26 9.1475 332.973 9.3875 332.748C9.6325 332.523 9.825 332.358 9.965 332.253L11.15 333.085C11.01 333.2 10.83 333.355 10.61 333.55C10.39 333.745 10.17 333.985 9.95 334.27C9.73 334.555 9.545 334.888 9.395 335.268C9.245 335.648 9.17 336.078 9.17 336.558C9.17 337.013 9.25 337.425 9.41 337.795C9.57 338.165 9.8075 338.46 10.1225 338.68C10.4375 338.905 10.8275 339.018 11.2925 339.018C11.6875 339.018 12.0225 338.938 12.2975 338.778C12.5775 338.618 12.8175 338.395 13.0175 338.11C13.2175 337.825 13.4 337.493 13.565 337.113C13.735 336.733 13.905 336.323 14.075 335.883C14.2 335.573 14.345 335.258 14.51 334.938C14.68 334.618 14.885 334.323 15.125 334.053C15.37 333.783 15.66 333.565 15.995 333.4C16.33 333.235 16.725 333.153 17.18 333.153C17.64 333.153 18.075 333.24 18.485 333.415C18.895 333.59 19.2575 333.838 19.5725 334.158C19.8925 334.478 20.1425 334.858 20.3225 335.298C20.5075 335.743 20.6 336.235 20.6 336.775C20.6 337.255 20.525 337.708 20.375 338.133C20.225 338.563 20.0325 338.945 19.7975 339.28C19.5675 339.615 19.325 339.883 19.07 340.083L17.9525 339.37C18.1675 339.205 18.37 338.995 18.56 338.74C18.755 338.485 18.9125 338.193 19.0325 337.863C19.1525 337.533 19.2125 337.178 19.2125 336.798C19.2125 336.333 19.115 335.938 18.92 335.613C18.73 335.293 18.4825 335.048 18.1775 334.878C17.8725 334.708 17.5475 334.623 17.2025 334.623C16.8925 334.623 16.63 334.685 16.415 334.81C16.2 334.94 16.0175 335.113 15.8675 335.328C15.7175 335.543 15.585 335.785 15.47 336.055C15.355 336.325 15.245 336.603 15.14 336.888C14.94 337.398 14.7325 337.88 14.5175 338.335C14.3075 338.79 14.06 339.19 13.775 339.535C13.495 339.88 13.1575 340.15 12.7625 340.345C12.3675 340.545 11.89 340.645 11.33 340.645C10.575 340.645 9.93 340.465 9.395 340.105C8.865 339.75 8.46 339.263 8.18 338.643C7.9 338.023 7.76 337.315 7.76 336.52Z" fill="#C8CCD8"/>
</g>
<defs>
<clipPath id="clip0">
<rect width="25" height="357" fill="white"/>
</clipPath>
</defs>
</svg>
