<svg width="25" height="386" viewBox="0 0 25 386" fill="none" xmlns="http://www.w3.org/2000/svg">
<g clip-path="url(#clip0)">
<rect x="13" width="1" height="104" fill="#C8CCD8"/>
<path d="M8 153.92H20.375V157.43C20.375 158.24 20.235 158.945 19.955 159.545C19.675 160.145 19.27 160.61 18.74 160.94C18.21 161.275 17.565 161.443 16.805 161.443C16.055 161.443 15.4 161.275 14.84 160.94C14.285 160.61 13.855 160.145 13.55 159.545C13.245 158.945 13.0925 158.24 13.0925 157.43V155.443H8V153.92ZM14.345 155.443V157.018C14.345 157.578 14.44 158.07 14.63 158.495C14.82 158.925 15.095 159.26 15.455 159.5C15.815 159.745 16.2525 159.868 16.7675 159.868C17.2875 159.868 17.7225 159.745 18.0725 159.5C18.4275 159.26 18.695 158.925 18.875 158.495C19.055 158.07 19.145 157.578 19.145 157.018V155.443H14.345ZM7.76 184.729C7.76 183.864 7.925 183.054 8.255 182.299C8.585 181.544 9.0425 180.881 9.6275 180.311C10.2175 179.741 10.9 179.294 11.675 178.969C12.455 178.649 13.29 178.489 14.18 178.489C15.075 178.489 15.91 178.649 16.685 178.969C17.46 179.294 18.14 179.741 18.725 180.311C19.315 180.881 19.775 181.544 20.105 182.299C20.435 183.054 20.6 183.864 20.6 184.729C20.6 185.594 20.435 186.404 20.105 187.159C19.775 187.914 19.315 188.576 18.725 189.146C18.14 189.716 17.46 190.161 16.685 190.481C15.91 190.806 15.075 190.969 14.18 190.969C13.29 190.969 12.455 190.806 11.675 190.481C10.9 190.161 10.2175 189.716 9.6275 189.146C9.0425 188.576 8.585 187.914 8.255 187.159C7.925 186.404 7.76 185.594 7.76 184.729ZM9.23 184.729C9.23 185.379 9.355 185.981 9.605 186.536C9.855 187.096 10.2025 187.584 10.6475 187.999C11.0975 188.419 11.6225 188.744 12.2225 188.974C12.8275 189.209 13.48 189.326 14.18 189.326C14.88 189.326 15.53 189.209 16.13 188.974C16.735 188.744 17.26 188.419 17.705 187.999C18.155 187.584 18.505 187.096 18.755 186.536C19.005 185.981 19.13 185.379 19.13 184.729C19.13 184.079 19.005 183.474 18.755 182.914C18.505 182.359 18.155 181.871 17.705 181.451C17.26 181.036 16.735 180.711 16.13 180.476C15.53 180.246 14.88 180.131 14.18 180.131C13.48 180.131 12.8275 180.246 12.2225 180.476C11.6225 180.711 11.0975 181.036 10.6475 181.451C10.2025 181.871 9.855 182.359 9.605 182.914C9.355 183.474 9.23 184.079 9.23 184.729ZM8 209.013H20.375V212.523C20.375 213.343 20.2325 214.053 19.9475 214.653C19.6625 215.253 19.2525 215.715 18.7175 216.04C18.1875 216.37 17.55 216.535 16.805 216.535C16.155 216.535 15.5775 216.408 15.0725 216.153C14.5675 215.898 14.155 215.533 13.835 215.058C13.515 214.588 13.305 214.025 13.205 213.37L8 217.465V215.53L13.0475 211.698V210.535H8V209.013ZM14.345 210.535V212.11C14.345 212.7 14.4425 213.208 14.6375 213.633C14.8325 214.058 15.11 214.385 15.47 214.615C15.835 214.845 16.2675 214.96 16.7675 214.96C17.5125 214.96 18.095 214.708 18.515 214.203C18.935 213.703 19.145 213.005 19.145 212.11V210.535H14.345ZM8 236.489H19.01V232.904H20.375V241.604H19.01V238.012H8V236.489ZM8 259.198H20.375V265.663H19.0325V260.233L19.43 260.721H14.195L14.87 260.233V265.326H13.535V260.233L14.21 260.721H8V259.198ZM7.76 288.982C7.76 288.117 7.925 287.307 8.255 286.552C8.585 285.797 9.0425 285.134 9.6275 284.564C10.2175 283.994 10.9 283.547 11.675 283.222C12.455 282.902 13.29 282.742 14.18 282.742C15.075 282.742 15.91 282.902 16.685 283.222C17.46 283.547 18.14 283.994 18.725 284.564C19.315 285.134 19.775 285.797 20.105 286.552C20.435 287.307 20.6 288.117 20.6 288.982C20.6 289.847 20.435 290.657 20.105 291.412C19.775 292.167 19.315 292.829 18.725 293.399C18.14 293.969 17.46 294.414 16.685 294.734C15.91 295.059 15.075 295.222 14.18 295.222C13.29 295.222 12.455 295.059 11.675 294.734C10.9 294.414 10.2175 293.969 9.6275 293.399C9.0425 292.829 8.585 292.167 8.255 291.412C7.925 290.657 7.76 289.847 7.76 288.982ZM9.23 288.982C9.23 289.632 9.355 290.234 9.605 290.789C9.855 291.349 10.2025 291.837 10.6475 292.252C11.0975 292.672 11.6225 292.997 12.2225 293.227C12.8275 293.462 13.48 293.579 14.18 293.579C14.88 293.579 15.53 293.462 16.13 293.227C16.735 292.997 17.26 292.672 17.705 292.252C18.155 291.837 18.505 291.349 18.755 290.789C19.005 290.234 19.13 289.632 19.13 288.982C19.13 288.332 19.005 287.727 18.755 287.167C18.505 286.612 18.155 286.124 17.705 285.704C17.26 285.289 16.735 284.964 16.13 284.729C15.53 284.499 14.88 284.384 14.18 284.384C13.48 284.384 12.8275 284.499 12.2225 284.729C11.6225 284.964 11.0975 285.289 10.6475 285.704C10.2025 286.124 9.855 286.612 9.605 287.167C9.355 287.727 9.23 288.332 9.23 288.982ZM8 313.266H20.375V314.788H9.3425V319.761H8V313.266ZM8 337.348H20.375V338.87H8V337.348ZM7.76 363.147C7.76 362.282 7.925 361.472 8.255 360.717C8.585 359.962 9.0425 359.299 9.6275 358.729C10.2175 358.159 10.9 357.712 11.675 357.387C12.455 357.067 13.29 356.907 14.18 356.907C15.075 356.907 15.91 357.067 16.685 357.387C17.46 357.712 18.14 358.159 18.725 358.729C19.315 359.299 19.775 359.962 20.105 360.717C20.435 361.472 20.6 362.282 20.6 363.147C20.6 364.012 20.435 364.822 20.105 365.577C19.775 366.332 19.315 366.994 18.725 367.564C18.14 368.134 17.46 368.579 16.685 368.899C15.91 369.224 15.075 369.387 14.18 369.387C13.29 369.387 12.455 369.224 11.675 368.899C10.9 368.579 10.2175 368.134 9.6275 367.564C9.0425 366.994 8.585 366.332 8.255 365.577C7.925 364.822 7.76 364.012 7.76 363.147ZM9.23 363.147C9.23 363.797 9.355 364.399 9.605 364.954C9.855 365.514 10.2025 366.002 10.6475 366.417C11.0975 366.837 11.6225 367.162 12.2225 367.392C12.8275 367.627 13.48 367.744 14.18 367.744C14.88 367.744 15.53 367.627 16.13 367.392C16.735 367.162 17.26 366.837 17.705 366.417C18.155 366.002 18.505 365.514 18.755 364.954C19.005 364.399 19.13 363.797 19.13 363.147C19.13 362.497 19.005 361.892 18.755 361.332C18.505 360.777 18.155 360.289 17.705 359.869C17.26 359.454 16.735 359.129 16.13 358.894C15.53 358.664 14.88 358.549 14.18 358.549C13.48 358.549 12.8275 358.664 12.2225 358.894C11.6225 359.129 11.0975 359.454 10.6475 359.869C10.2025 360.289 9.855 360.777 9.605 361.332C9.355 361.892 9.23 362.497 9.23 363.147Z" fill="#C8CCD8"/>
</g>
<defs>
<clipPath id="clip0">
<rect width="25" height="386" fill="white"/>
</clipPath>
</defs>
</svg>
